<svg width="176px" height="176px" viewBox="0 0 176 176" fill="none" xmlns="http://www.w3.org/2000/svg">
<g clip-path="url(#clip0)">
<path fill-rule="evenodd" clip-rule="evenodd" d="M84.81 33H159.5L165.11 38.5V88.077C161.674 85.4824 157.945 83.3004 154 81.576V65.89H84.59L75.13 75.35L71.28 77H21.89V143H78.1C78.87 146.828 80.047 150.502 81.576 154H16.61L11.11 148.5V27.5L16.61 22H71.61L75.46 23.65L84.81 33ZM82.39 55H153.89L154 44.11H82.5L78.54 42.46L69.19 33.11H22V66.11H69.08L78.54 56.65L82.39 55Z" fill="white"/>
<path fill-rule="evenodd" clip-rule="evenodd" d="M107.558 95.4139C112.362 92.1681 117.76 89.9036 123.441 88.7506C129.123 87.5977 134.977 87.5789 140.666 88.6955C146.355 89.8121 151.767 92.0419 156.592 95.2569C161.416 98.4719 165.558 102.609 168.778 107.429C171.999 112.25 174.235 117.66 175.358 123.348C176.481 129.035 176.469 134.889 175.323 140.572C174.177 146.255 171.918 151.656 168.678 156.463C165.438 161.271 161.28 165.391 156.442 168.586C146.738 174.995 134.891 177.303 123.492 175.003C112.092 172.703 102.066 165.984 95.6053 156.314C89.145 146.644 86.7758 134.81 89.0156 123.398C91.2553 111.986 97.9219 101.925 107.558 95.4139ZM130.988 150.304L157.245 115.302L148.445 108.702L125.598 139.161L111.287 127.71L104.412 136.29L123.156 151.294L130.999 150.304H130.988Z" fill="white"/>
</g>
<defs>
<clipPath id="clip0">
<rect width="176" height="176" fill="white"/>
</clipPath>
</defs>
</svg>
